<?xml version="1.0" encoding="UTF-8" standalone="no"?>
<svg
   xmlns:dc="http://purl.org/dc/elements/1.1/"
   xmlns:cc="http://creativecommons.org/ns#"
   xmlns:rdf="http://www.w3.org/1999/02/22-rdf-syntax-ns#"
   xmlns:svg="http://www.w3.org/2000/svg"
   xmlns="http://www.w3.org/2000/svg"
   id="svg901"
   version="1.1"
   viewBox="0 0 1920 160"
   height="160"
   width="1920">
  <metadata
     id="metadata905">
    <rdf:RDF>
      <cc:Work
         rdf:about="">
        <dc:format>image/svg+xml</dc:format>
        <dc:type
           rdf:resource="http://purl.org/dc/dcmitype/StillImage" />
        <dc:title></dc:title>
      </cc:Work>
    </rdf:RDF>
  </metadata>
  <defs
     id="defs885">
    <style
       id="style870">.a{fill:#1159a7;}.b{clip-path:url(#a);}.c{fill:url(#b);}.d{fill:none;}.e{fill:rgba(0,181,220,0.08);}.f{fill:url(#c);}</style>
    <clipPath
       id="a">
      <rect
         id="rect872"
         height="160"
         width="1920"
         class="a" />
    </clipPath>
    <linearGradient
       gradientTransform="matrix(1.2763472,0,0,0.55868814,-37.415217,-175.77328)"
       gradientUnits="userSpaceOnUse"
       y2="1518.9341"
       x2="784.5734"
       y1="-14.122321"
       x1="712.39264"
       id="b">
      <stop
         style="stop-color:#70b6a7;stop-opacity:1"
         id="stop875"
         stop-color="#121b95"
         offset="0" />
      <stop
         style="stop-color:#91efda;stop-opacity:1"
         id="stop877"
         stop-color="#425ad2"
         offset="1" />
    </linearGradient>
    <linearGradient
       gradientTransform="matrix(2.038332,0,0,0.34983507,-400.0123,-83.849086)"
       gradientUnits="userSpaceOnUse"
       y2="1259.3889"
       x2="629.69755"
       y1="-618.36472"
       x1="641.03208"
       id="c">
      <stop
         id="stop880"
         stop-opacity="0.58"
         stop-color="#00b5dc"
         offset="0" />
      <stop
         id="stop882"
         stop-opacity="0.141"
         stop-color="#00b5dc"
         offset="1" />
    </linearGradient>
  </defs>
  <rect
     class="c"
     width="2002.776"
     height="876.6637"
     id="rect887"
     style="fill:url(#b);stroke-width:0.844441"
     x="-37.415222"
     y="-175.77327" />
  <rect
     style="stroke-width:0.844441"
     y="-159.84476"
     x="-287.76233"
     id="rect889"
     height="657.20325"
     width="2294.8477"
     class="d" />
  <path
     style="opacity:0.659016;stroke-width:0.844441"
     class="e"
     d="m -331.19221,44.480606 314.836864,65.224274 c 35.122588,7.27674 74.515674,0.44508 96.390693,-16.714378 L 239.36719,-31.993914 c 24.82874,-19.476462 71.5553,-25.305366 108.56755,-13.543981 l 212.42187,67.502993 c 21.82942,6.93674 48.01294,7.962765 71.32634,2.795862 l 239.95162,-53.182925 a 114.40564,90.383277 0 0 1 63.50834,0.607959 L 1471.3027,103.02258 c 29.7633,7.26324 64.2712,4.12136 88.5005,-8.059588 l 409.1954,-205.713902 c 39.5992,-19.90804 101.5523,-14.17446 127.8679,11.832691 l 21.5387,21.28683 c 16.1604,15.969814 14.4351,35.796041 -4.4168,50.790868 L 1634.4025,354.63365 c -23.7856,18.92029 -68.3679,25.24682 -105.1303,14.92127 l -214.0398,-60.12041 a 113.8375,89.934438 0 0 0 -70.8694,-0.89468 l -290.4565,72.63762 a 114.01992,90.078547 0 0 1 -68.99491,-0.38504 L 441.06864,263.82255 a 114.23083,90.245173 0 0 0 -57.22847,-2.75008 l -232.23527,35.8636 c -20.79956,3.21167 -42.99095,1.74656 -61.921743,-4.09059 L -403.84578,140.68903 c -32.51563,-10.02532 -49.45987,-30.97214 -41.61241,-51.442357 l 4.00828,-10.452396 c 10.73562,-27.987892 62.70364,-44.163361 110.25485,-34.313671"
     id="path891" />
  <path
     class="f"
     d="m 1658.0864,-34.554848 a 104.67042,82.692217 0 0 0 -26.8866,6.079592 L 1310.4527,83.944668 c -23.2184,8.138398 -52.0098,9.334802 -77.0808,3.20267 L 1005.9106,31.516813 c -25.76928,-6.304762 -55.4129,-4.853166 -78.88876,3.854162 L 651.85832,137.44208 c -25.78069,9.56373 -58.78371,10.30829 -85.82893,1.93646 L 125.8432,3.1311203 C 104.10879,-3.5962116 78.212191,-4.5134044 55.163854,0.62797944 L -345.81641,90.070796 c -28.70402,6.403087 -48.81858,21.240294 -52.29578,38.579894 l -1.35573,6.7551 c -5.10465,25.38568 26.44763,48.45736 71.17528,52.05107 l 452.35449,36.34171 a 103.25104,81.57087 0 0 1 39.12327,9.30703 l 261.84659,113.84525 c 25.11281,10.9185 58.98893,12.85346 87.45543,4.99727 l 348.52392,-96.18666 c 24.41641,-6.73934 53.10808,-6.33403 76.89366,1.08607 l 291.35438,90.86814 c 37.5015,11.69609 84.572,5.43786 108.9314,-14.48594 l 218.526,-178.716 c 17.576,-14.37411 47.7554,-22.07793 78.4413,-20.02513 l 412.2004,27.58334 c 46.4045,3.10584 88.2744,-15.9443 92.8517,-42.24492 l 26.4258,-151.834444 c 5.5189,-31.712206 -44.9671,-57.343318 -100.1178,-50.821641 z"
     id="path893"
     style="fill:url(#c);stroke-width:0.844441" />
  <rect
     y="-178.16479"
     x="-2.1479383"
     height="238.15361"
     width="2044.6868"
     id="rect960"
     style="opacity:0.659016;fill:none;fill-opacity:1;stroke:none;stroke-width:0.947302" />
</svg>
